<?xml version="1.0" encoding="utf-8"?>
<!-- Generator: Adobe Illustrator 19.2.1, SVG Export Plug-In . SVG Version: 6.00 Build 0)  -->
<svg version="1.1" id="Layer_1" xmlns="http://www.w3.org/2000/svg" xmlns:xlink="http://www.w3.org/1999/xlink" x="0px" y="0px"
	 viewBox="0 0 24 24" style="enable-background:new 0 0 24 24;" xml:space="preserve">
<style type="text/css">
	.st0{opacity:0.35;fill:#3CD483;}
	.st1{fill:#3CD483;}
</style>
<path class="st0" d="M18.4,24c-1.4,0-2.9-0.6-3.9-1.6L1.6,9.5C0,7.9-0.4,5.5,0.4,3.4S3.3,0,5.6,0h12.9C21.5,0,24,2.5,24,5.6v12.9
	c0,2.3-1.4,4.3-3.4,5.1C19.9,23.9,19.2,24,18.4,24z"/>
<path class="st1" d="M5.6,24c-1.4,0-2.8-0.5-3.9-1.6c-2.2-2.2-2.2-5.7,0-7.9L14.5,1.6c2.2-2.2,5.7-2.2,7.9,0c2.2,2.2,2.2,5.7,0,7.9
	L9.5,22.4C8.4,23.5,7,24,5.6,24z"/>
</svg>
