<?xml version="1.0" encoding="utf-8"?>
<!-- Generator: Adobe Illustrator 21.1.0, SVG Export Plug-In . SVG Version: 6.00 Build 0)  -->
<svg version="1.1" id="Layer_1" xmlns="http://www.w3.org/2000/svg" xmlns:xlink="http://www.w3.org/1999/xlink" x="0px" y="0px"
	 viewBox="0 0 57.2 56.6" style="enable-background:new 0 0 57.2 56.6;" xml:space="preserve">
<style type="text/css">
	.st0{opacity:0.35;fill:#7960ED;enable-background:new    ;}
	.st1{fill:#7960ED;}
</style>
<path class="st0" d="M45.4,48.7c-2.9,0-5.8-1.1-8-3.1L10.3,20.4c-3.5-3.3-4.7-8.4-3-12.9C9.1,3,13.4,0,18.3,0h27.2
	C52,0,57.2,5.3,57.2,11.7v25.2c0,4.7-2.8,8.9-7,10.8C48.6,48.3,47,48.7,45.4,48.7z"/>
<path class="st1" d="M31,56.6c-3.1,0-6.1-1.2-8.3-3.4L3.4,34c-2.9-3-4.1-7.2-3-11.2c1-4,4.1-7.2,8-8.4l27.4-8.2
	c4.1-1.2,8.6-0.1,11.7,2.9c3.1,3.1,4.2,7.5,2.9,11.7l-8.2,27.4c-1.2,4-4.4,7-8.4,8C32.9,56.5,31.9,56.6,31,56.6z"/>
<path class="st1" d="M31,56.6c-3.1,0-6.1-1.2-8.3-3.4L3.4,34c-2.9-3-4.1-7.2-3-11.2c1-4,4.1-7.2,8-8.4l27.4-8.2
	c4.1-1.2,8.6-0.1,11.7,2.9c3.1,3.1,4.2,7.5,2.9,11.7l-8.2,27.4c-1.2,4-4.4,7-8.4,8C32.9,56.5,31.9,56.6,31,56.6z"/>
</svg>
