<svg xmlns="http://www.w3.org/2000/svg" width="2499.98" height="2500" viewBox="0 0 2499.98 2500"><title>facebook-icon-blue</title><path d="M2362,0H138A138,138,0,0,0,0,138V2362a138,138,0,0,0,138,138H1335.32V1531.87H1009.53v-377.3h325.79V876.32c0-322.91,197.21-498.74,485.28-498.74,138,0,256.57,10.28,291.13,14.87V729.9l-199.79.09c-156.65,0-187,74.44-187,183.68v240.89h373.62l-48.65,377.3H1725V2500H2362a138,138,0,0,0,138-138V138A138,138,0,0,0,2362,0Z" transform="translate(-0.01)" fill="#4267b2"/></svg>