<svg xmlns="http://www.w3.org/2000/svg" width="214" height="16" viewBox="0 0 214 16"><g fill="#fff"><path d="m18.22 15.79h-5l-1.49-6.79q-.11-.43-.34-1.69t-.33-2.1q-.06.69-.28 1.72t-.37 1.88q-.19.86-1.55 7h-5l-3.86-15.57h4.07l1.7 7.76q.58 2.58.79 4.11.14-1.08.5-2.94t.66-3.05l1.38-5.88h3.9l1.33 5.88q.34 1.41.69 3.26t.47 2.76q.14-1.18.76-4.09l1.75-7.81h4.07"/><path d="M37.15,8a8.36,8.36,0,0,1-1.93,6,7.43,7.43,0,0,1-5.66,2,7.42,7.42,0,0,1-5.63-2.05,8.33,8.33,0,0,1-2-6A8.27,8.27,0,0,1,23.92,2a7.46,7.46,0,0,1,5.66-2,7.41,7.41,0,0,1,5.65,2Q37.15,4.06,37.15,8ZM26.41,8q0,4.51,3.15,4.51a2.71,2.71,0,0,0,2.38-1.1A6,6,0,0,0,32.71,8a6,6,0,0,0-.78-3.44,2.68,2.68,0,0,0-2.34-1.11Q26.41,3.44,26.41,8Z"/><path d="M42.77,10.13v5.66H38.55V0.24h5.11Q50,0.24,50,4.84A4.59,4.59,0,0,1,47.38,9l4.55,6.77H47.15l-3.31-5.66H42.77Zm0-3.16h0.79Q45.77,7,45.77,5q0-1.61-2.17-1.61H42.77V7Z"/><path d="M52.26,15.79V0.24h4.22V12.4h6v3.39H52.26Z"/><path d="M77.14,7.69a8,8,0,0,1-2.15,6,8.29,8.29,0,0,1-6,2.1H63.89V0.24h5.4a8.17,8.17,0,0,1,5.8,1.91A7.21,7.21,0,0,1,77.14,7.69Zm-4.38.15a4.92,4.92,0,0,0-.85-3.17,3.15,3.15,0,0,0-2.58-1H68.11v8.71H69a3.41,3.41,0,0,0,2.82-1.11A5.35,5.35,0,0,0,72.76,7.84Z"/><path d="M89.64,0.24h2L86,15.79H84.18L78.58,0.24H80.5L84.09,10.3a28.15,28.15,0,0,1,1,3.37,28,28,0,0,1,1-3.43Z"/><path d="M101.46,15.79h-8.7V0.24h8.7V1.85H94.57v5H101V8.45H94.57v5.72h6.89v1.62Z"/><path d="M110.29,1.64a5.11,5.11,0,0,0-4.06,1.71A6.86,6.86,0,0,0,104.74,8a7,7,0,0,0,1.44,4.71,5.12,5.12,0,0,0,4.09,1.66,14,14,0,0,0,3.73-.58v1.58a11.52,11.52,0,0,1-4,.61,6.79,6.79,0,0,1-5.32-2.08A8.56,8.56,0,0,1,102.8,8a9.31,9.31,0,0,1,.9-4.21A6.46,6.46,0,0,1,106.3,1a7.91,7.91,0,0,1,4-1,9.71,9.71,0,0,1,4.29.89l-0.77,1.55A8.3,8.3,0,0,0,110.29,1.64Z"/><path d="M122.21,15.79h-1.82V1.85h-4.94V0.24h11.7V1.85h-4.94V15.79Z"/><path d="M141.41,8a8.53,8.53,0,0,1-1.9,5.87A6.68,6.68,0,0,1,134.25,16a6.76,6.76,0,0,1-5.32-2.1A8.6,8.6,0,0,1,127,8a8.49,8.49,0,0,1,1.88-5.88A6.81,6.81,0,0,1,134.27,0a6.66,6.66,0,0,1,5.25,2.13A8.52,8.52,0,0,1,141.41,8ZM129,8a7.35,7.35,0,0,0,1.35,4.79,5.53,5.53,0,0,0,7.84,0A7.46,7.46,0,0,0,139.49,8a7.4,7.4,0,0,0-1.32-4.76,4.73,4.73,0,0,0-3.9-1.62,4.83,4.83,0,0,0-3.95,1.63A7.28,7.28,0,0,0,129,8Z"/><path d="M145.18,9.32v6.46h-1.82V0.24h4.28a6.76,6.76,0,0,1,4.24,1.1,4,4,0,0,1,1.37,3.3,4.13,4.13,0,0,1-3.14,4.17l4.24,7h-2.15l-3.78-6.46h-3.26Zm0-1.55h2.49A4.31,4.31,0,0,0,150.48,7a2.82,2.82,0,0,0,.9-2.28,2.59,2.59,0,0,0-.91-2.22,5,5,0,0,0-2.93-.68h-2.36V7.77Z"/><path d="M157,15.79V0.24h4.22V12.4h6v3.39H157Z"/><path d="M182.66,8a8.36,8.36,0,0,1-1.93,6,8.81,8.81,0,0,1-11.29,0,8.33,8.33,0,0,1-2-6A8.27,8.27,0,0,1,169.43,2a8.87,8.87,0,0,1,11.31,0Q182.66,4.06,182.66,8ZM171.92,8q0,4.51,3.15,4.51a2.71,2.71,0,0,0,2.38-1.1A6,6,0,0,0,178.22,8a6,6,0,0,0-.78-3.44,2.68,2.68,0,0,0-2.34-1.11Q171.92,3.44,171.92,8Z"/><path d="M190.65,6.69h6.74v8.38a18.6,18.6,0,0,1-6,.94,7.31,7.31,0,0,1-5.58-2.08,8.32,8.32,0,0,1-2-5.94A7.79,7.79,0,0,1,186,2.12,8.31,8.31,0,0,1,192,0a13.43,13.43,0,0,1,2.78.28,11.78,11.78,0,0,1,2.28.7l-1.33,3.3A8.28,8.28,0,0,0,192,3.47a3.53,3.53,0,0,0-2.86,1.2,5.16,5.16,0,0,0-1,3.42,5.22,5.22,0,0,0,.91,3.32,3.17,3.17,0,0,0,2.63,1.14,7.76,7.76,0,0,0,1.73-.18V9.93h-2.79V6.69Z"/><path d="M214,8a8.36,8.36,0,0,1-1.93,6,8.81,8.81,0,0,1-11.29,0,8.33,8.33,0,0,1-2-6A8.27,8.27,0,0,1,200.77,2a8.87,8.87,0,0,1,11.31,0Q214,4.06,214,8ZM203.26,8q0,4.51,3.15,4.51a2.71,2.71,0,0,0,2.38-1.1A6,6,0,0,0,209.56,8a6,6,0,0,0-.78-3.44,2.68,2.68,0,0,0-2.34-1.11Q203.26,3.44,203.26,8Z"/></g></svg>