<svg xmlns="http://www.w3.org/2000/svg" viewBox="0 0 25 22" width="25" height="22"><path d="M12.49,20.3s-0.58,1.06.32,1.3c1.29,0.35,1.75-1.87,1.75-1.87Z" fill="#4a3866"/><path d="M12.72,20.36s-0.86,2-2.09,1.59S11,20.21,11,20.21Z" fill="#4a3866"/><path d="M11.14,20.09s-1.75,2.67-2.83,1.55c-0.63-.65.47-2.16,0.47-2.16Z" fill="#4a3866"/><path d="M12,0A10.07,10.07,0,0,0,2.09,10.21a10.5,10.5,0,0,0,.27,2.34A3.18,3.18,0,0,0,.68,15.17H2.28S0.34,16.3.25,18l1.47-.35A6.14,6.14,0,0,0,0,21L5.06,17.5A9.74,9.74,0,0,0,12,20.43a10.07,10.07,0,0,0,9.92-10.21A10.07,10.07,0,0,0,12,0Z" fill="#ff2753"/><path d="M10.05,17.87L17.59,4.48s-4.17-3.55-7.54-.62C6.2,7.21,6.83,15.32,10.05,17.87Z" fill="#fff"/><ellipse cx="12.17" cy="6.97" rx="2.29" ry="2.35" fill="#4a3866"/><path d="M14.46,14l7.3,6.23s8.7-12.06-2.42-15.15Z" fill="#ffdd5a"/><path d="M22.72,9.33a2.72,2.72,0,0,1,.43,3.83A11.51,11.51,0,0,0,22.72,9.33Z" fill="#fff"/></svg>